<?xml version="1.0" standalone="no"?><!-- Generator: Gravit.io --><svg xmlns="http://www.w3.org/2000/svg" xmlns:xlink="http://www.w3.org/1999/xlink" style="isolation:isolate" viewBox="0 0 1000 1000" width="1000" height="1000"><defs><clipPath id="_clipPath_Pl6Pcvp77Kr2CyMusHCojCD8sJS0geDC"><rect width="1000" height="1000"/></clipPath></defs><g clip-path="url(#_clipPath_Pl6Pcvp77Kr2CyMusHCojCD8sJS0geDC)"><rect x="101" y="85" width="524" height="822" transform="matrix(1,0,0,1,0,0)" fill="rgb(235,235,235)"/><g transform="matrix(1,0,0,1,101,85)"><text transform="matrix(1,0,0,1,200.21,43.759)" style="font-family:&quot;Open Sans&quot;;font-weight:400;font-size:20px;font-style:normal;fill:#000000;stroke:#000000;stroke-width:1;">main process</text></g><rect x="155" y="214" width="413" height="606" transform="matrix(1,0,0,1,0,0)" fill="rgb(255,255,0)"/><g transform="matrix(1,0,0,1,155,214)"><text transform="matrix(1,0,0,1,165.065,49.759)" style="font-family:&quot;Open Sans&quot;;font-weight:400;font-size:20px;font-style:normal;fill:#000000;stroke:none;">Function</text></g><g transform="matrix(1,0,0,1,170,311)"><text transform="matrix(1,0,0,1,0,51.305)" style="font-family:&quot;Open Sans&quot;;font-weight:400;font-size:48px;font-style:normal;fill:#000000;stroke:none;">...</text></g><rect x="170" y="392" width="380" height="295" transform="matrix(1,0,0,1,0,0)" fill="rgb(0,255,255)"/><g transform="matrix(1,0,0,1,170,396)"><text transform="matrix(1,0,0,1,132.594,40.259)" style="font-family:&quot;Open Sans&quot;;font-weight:400;font-size:20px;font-style:normal;fill:#000000;stroke:none;">Sub Process</text></g><rect x="212" y="470" width="288" height="161" transform="matrix(1,0,0,1,0,0)" fill="rgb(255,153,0)"/><g transform="matrix(1,0,0,1,270,517)"><text transform="matrix(1,0,0,1,59.84,51.305)" style="font-family:&quot;Open Sans&quot;;font-weight:400;font-size:48px;font-style:normal;fill:#000000;stroke:none;">...</text></g><g transform="matrix(1,0,0,1,212,470)"><text transform="matrix(1,0,0,1,46.74,28.259)" style="font-family:&quot;Open Sans&quot;;font-weight:400;font-size:20px;font-style:normal;fill:#000000;stroke:none;">Another sub process</text></g><rect x="170" y="716" width="193" height="94" transform="matrix(1,0,0,1,0,0)" fill="rgb(235,235,235)"/><g transform="matrix(1,0,0,1,170,716)"><text transform="matrix(1,0,0,1,0,21.377)" style="font-family:&quot;Open Sans&quot;;font-weight:400;font-size:20px;font-style:normal;fill:#000000;stroke:none;">Console.log data</text></g><rect x="770" y="0" width="157" height="1000" transform="matrix(1,0,0,1,0,0)" fill="rgb(235,235,235)"/><g transform="matrix(0,1,-1,0,927,0)"><text transform="matrix(1,0,0,1,415.234,97.121)" style="font-family:&quot;Open Sans&quot;;font-weight:400;font-size:48px;font-style:normal;fill:#000000;stroke:none;">SideBuf</text></g><rect x="500" y="532.75" width="188" height="35.5" transform="matrix(1,0,0,1,0,0)" fill="rgb(235,235,235)"/><polygon points="668.244,604.571,668.452,496.429,770,550.666" fill="rgb(235,235,235)"/><rect x="446.756" y="752.321" width="323.244" height="35.5" transform="matrix(1,0,0,1,0,0)" fill="rgb(235,235,235)"/><polygon points="446.756,824.141,446.548,716,345,770.236" fill="rgb(235,235,235)"/></g></svg>